<svg id="visual" viewBox="0 0 5000 1900" width="5000" height="1900" xmlns="http://www.w3.org/2000/svg" xmlns:xlink="http://www.w3.org/1999/xlink" version="1.1"><path d="M0 191L75.8 206.8C151.7 222.7 303.3 254.3 454.8 305C606.3 355.7 757.7 425.3 909.2 415.8C1060.7 406.3 1212.3 317.7 1363.8 267C1515.3 216.3 1666.7 203.7 1818.2 203.7C1969.7 203.7 2121.3 216.3 2272.8 257.5C2424.3 298.7 2575.7 368.3 2727.2 415.8C2878.7 463.3 3030.3 488.7 3181.8 485.5C3333.3 482.3 3484.7 450.7 3636.2 441.2C3787.7 431.7 3939.3 444.3 4090.8 412.7C4242.3 381 4393.7 305 4545.2 305C4696.7 305 4848.3 381 4924.2 419L5000 457L5000 0L4924.2 0C4848.3 0 4696.7 0 4545.2 0C4393.7 0 4242.3 0 4090.8 0C3939.3 0 3787.7 0 3636.2 0C3484.7 0 3333.3 0 3181.8 0C3030.3 0 2878.7 0 2727.2 0C2575.7 0 2424.3 0 2272.8 0C2121.3 0 1969.7 0 1818.2 0C1666.7 0 1515.3 0 1363.8 0C1212.3 0 1060.7 0 909.2 0C757.7 0 606.3 0 454.8 0C303.3 0 151.7 0 75.8 0L0 0Z" fill="#004cbb"></path><path d="M0 552L75.8 539.3C151.7 526.7 303.3 501.3 454.8 520.3C606.3 539.3 757.7 602.7 909.2 596.3C1060.7 590 1212.3 514 1363.8 460.2C1515.3 406.3 1666.7 374.7 1818.2 387.3C1969.7 400 2121.3 457 2272.8 539.3C2424.3 621.7 2575.7 729.3 2727.2 751.5C2878.7 773.7 3030.3 710.3 3181.8 694.5C3333.3 678.7 3484.7 710.3 3636.2 707.2C3787.7 704 3939.3 666 4090.8 631.2C4242.3 596.3 4393.7 564.7 4545.2 577.3C4696.7 590 4848.3 647 4924.2 675.5L5000 704L5000 455L4924.2 417C4848.3 379 4696.7 303 4545.2 303C4393.7 303 4242.3 379 4090.8 410.7C3939.3 442.3 3787.7 429.7 3636.2 439.2C3484.7 448.7 3333.3 480.3 3181.8 483.5C3030.3 486.7 2878.7 461.3 2727.2 413.8C2575.7 366.3 2424.3 296.7 2272.8 255.5C2121.3 214.3 1969.7 201.7 1818.2 201.7C1666.7 201.7 1515.3 214.3 1363.8 265C1212.3 315.7 1060.7 404.3 909.2 413.8C757.7 423.3 606.3 353.7 454.8 303C303.3 252.3 151.7 220.7 75.8 204.8L0 189Z" fill="#2573ff"></path><path d="M0 1027L75.8 1052.3C151.7 1077.7 303.3 1128.3 454.8 1144.2C606.3 1160 757.7 1141 909.2 1122C1060.7 1103 1212.3 1084 1363.8 1036.5C1515.3 989 1666.7 913 1818.2 875C1969.7 837 2121.3 837 2272.8 916.2C2424.3 995.3 2575.7 1153.7 2727.2 1236C2878.7 1318.3 3030.3 1324.7 3181.8 1308.8C3333.3 1293 3484.7 1255 3636.2 1267.7C3787.7 1280.3 3939.3 1343.7 4090.8 1375.3C4242.3 1407 4393.7 1407 4545.2 1375.3C4696.7 1343.7 4848.3 1280.3 4924.2 1248.7L5000 1217L5000 702L4924.2 673.5C4848.3 645 4696.7 588 4545.2 575.3C4393.7 562.7 4242.3 594.3 4090.8 629.2C3939.3 664 3787.7 702 3636.2 705.2C3484.7 708.3 3333.3 676.7 3181.8 692.5C3030.3 708.3 2878.7 771.7 2727.2 749.5C2575.7 727.3 2424.3 619.7 2272.8 537.3C2121.3 455 1969.7 398 1818.2 385.3C1666.7 372.7 1515.3 404.3 1363.8 458.2C1212.3 512 1060.7 588 909.2 594.3C757.7 600.7 606.3 537.3 454.8 518.3C303.3 499.3 151.7 524.7 75.8 537.3L0 550Z" fill="#6198ff"></path><path d="M0 1578L75.8 1603.3C151.7 1628.7 303.3 1679.3 454.8 1695.2C606.3 1711 757.7 1692 909.2 1676.2C1060.7 1660.3 1212.3 1647.7 1363.8 1635C1515.3 1622.3 1666.7 1609.7 1818.2 1606.5C1969.7 1603.3 2121.3 1609.7 2272.8 1631.8C2424.3 1654 2575.7 1692 2727.2 1701.5C2878.7 1711 3030.3 1692 3181.8 1698.3C3333.3 1704.7 3484.7 1736.3 3636.2 1736.3C3787.7 1736.3 3939.3 1704.7 4090.8 1692C4242.3 1679.3 4393.7 1685.7 4545.2 1676.2C4696.7 1666.7 4848.3 1641.3 4924.2 1628.7L5000 1616L5000 1215L4924.2 1246.7C4848.3 1278.3 4696.7 1341.7 4545.2 1373.3C4393.7 1405 4242.3 1405 4090.8 1373.3C3939.3 1341.7 3787.7 1278.3 3636.2 1265.7C3484.7 1253 3333.3 1291 3181.8 1306.8C3030.3 1322.7 2878.7 1316.3 2727.2 1234C2575.7 1151.7 2424.3 993.3 2272.8 914.2C2121.3 835 1969.7 835 1818.2 873C1666.7 911 1515.3 987 1363.8 1034.5C1212.3 1082 1060.7 1101 909.2 1120C757.7 1139 606.3 1158 454.8 1142.2C303.3 1126.3 151.7 1075.7 75.8 1050.3L0 1025Z" fill="#2573ff"></path><path d="M0 1901L75.8 1901C151.7 1901 303.3 1901 454.8 1901C606.3 1901 757.7 1901 909.2 1901C1060.7 1901 1212.3 1901 1363.8 1901C1515.3 1901 1666.7 1901 1818.2 1901C1969.7 1901 2121.3 1901 2272.8 1901C2424.3 1901 2575.7 1901 2727.2 1901C2878.7 1901 3030.3 1901 3181.8 1901C3333.3 1901 3484.7 1901 3636.2 1901C3787.7 1901 3939.3 1901 4090.8 1901C4242.3 1901 4393.7 1901 4545.2 1901C4696.7 1901 4848.3 1901 4924.2 1901L5000 1901L5000 1614L4924.2 1626.7C4848.3 1639.3 4696.7 1664.7 4545.2 1674.2C4393.7 1683.7 4242.3 1677.3 4090.8 1690C3939.3 1702.7 3787.7 1734.3 3636.2 1734.3C3484.7 1734.3 3333.3 1702.7 3181.8 1696.3C3030.3 1690 2878.7 1709 2727.2 1699.5C2575.7 1690 2424.3 1652 2272.8 1629.8C2121.3 1607.7 1969.7 1601.3 1818.2 1604.5C1666.7 1607.7 1515.3 1620.3 1363.8 1633C1212.3 1645.7 1060.7 1658.3 909.2 1674.2C757.7 1690 606.3 1709 454.8 1693.2C303.3 1677.3 151.7 1626.7 75.8 1601.3L0 1576Z" fill="#004cbb"></path></svg>