<?xml version="1.0" encoding="UTF-8"?>
<svg version="1.1" viewBox="0 0 744.09 1052.4" xmlns="http://www.w3.org/2000/svg">
 <path d="m607.14 593.79-532.85-1.43c-18.956-3.29-36.805-12.65-50.278-26.38-13.474-13.73-22.506-31.75-25.441-50.76-2.9973-19.417 0.36589-39.699 9.0809-57.307s22.694-32.502 39.491-42.693c20.535-12.459 45.281-17.832 69.133-15.011 23.853 2.8213 46.662 13.819 63.724 30.725-9.2677-29.978-9.7698-62.609-1.4286-92.857 5.2516-19.044 14.039-37.27 26.863-52.298 12.824-15.027 29.804-26.746 48.851-31.988 21.697-5.9718 45.673-3.1817 65.419 7.6127s35.038 29.471 41.724 50.959c19.65-22.9 49.832-36.374 80-35.714 20.245 0.44251 40.269 7.0309 57.015 18.416s30.188 27.496 38.699 45.87c10.248 22.122 13.294 47.51 8.5714 71.429 20.58-8.3693 43.414-11.118 65.392-7.8711 21.978 3.2468 43.042 12.48 60.323 26.442 13.138 10.615 24.137 23.997 31.32 39.285 7.1831 15.287 10.472 32.492 8.6804 49.287-2.5576 23.976-15.793 46.613-35.432 60.603-19.639 13.989-45.358 19.1-68.854 13.683" stroke="#000" stroke-width="1px"/>
 <path d="m584.42 597.41-472.2-1.2753c-16.815-3.07-32.605-11.49-44.531-23.73-11.925-12.24-19.93-28.25-22.57-45.13-2.7067-17.306 0.22391-35.396 7.9384-51.122s20.138-29.05 35.104-38.151c18.196-11.065 40.143-15.832 61.289-13.313 21.147 2.5197 41.359 12.31 56.445 27.341-8.1998-26.777-8.6443-55.881-1.266-82.896 4.6317-16.959 12.376-33.21 23.729-46.633s26.426-23.917 43.367-28.611c19.276-5.3408 40.603-2.8439 58.124 6.805s31.032 26.338 36.824 45.483c17.309-20.446 44.112-32.5 70.894-31.883 17.983 0.41418 35.755 6.3387 50.588 16.515s26.706 24.536 34.232 40.875c9.1034 19.764 11.802 42.417 7.5958 63.766 18.247-7.4038 38.489-9.8212 57.966-6.9226s38.138 11.105 53.439 23.502c11.703 9.4816 21.48 21.443 27.844 35.095 6.3636 13.652 9.2438 29.003 7.603 43.975-2.3291 21.253-14.045 41.306-31.416 53.771s-40.119 17.144-61 12.545" fill="#fff" stroke="#000" stroke-width=".88944px"/>
 <path d="m377.58 600.41-456.25-1.1927c-16.172-2.2734-31.545-9.9071-43.131-21.417s-19.32-26.833-21.699-42.99c-2.4005-16.303 0.64036-33.291 8.1294-47.97s19.34-27.025 33.46-35.522c17.59-10.584 38.72-15.164 59.113-12.812s39.926 11.622 54.645 25.932c-7.9718-24.978-8.403-52.31-1.2232-77.528 4.5673-16.042 12.231-31.322 23.249-43.844s25.474-22.197 41.581-26.527c18.422-4.9525 38.694-2.6405 55.528 6.3328 16.834 8.9732 30.054 24.515 36.212 42.569 17.161-19.105 42.822-30.275 68.499-29.818 17.197 0.30604 34.255 5.6666 48.617 15.131 14.362 9.4645 25.994 22.988 33.338 38.542 8.6976 18.422 11.311 39.656 7.3392 59.637 17.59-7.2055 37.118-9.6166 55.932-6.9064 18.815 2.7102 36.868 10.535 51.709 22.412 11.054 8.8459 20.369 19.971 26.525 32.72 6.1559 12.749 9.0836 27.137 7.7244 41.229-1.9788 20.515-13.355 39.934-30.283 51.692-16.927 11.757-39.097 15.638-59.011 10.331" stroke="#fff" stroke-width="2"/>
 <path d="m566.36 649.07-419-1.15c-14.95-3.08-28.9-10.8-39.45-21.82-10.556-11.02-17.66-25.3-20.088-40.36-2.509-15.57-0.015-31.87 6.812-46.09 6.826-14.21 17.926-26.3 31.376-34.52 16.143-9.8682 35.654-14.109 54.437-11.831 18.783 2.2775 36.715 11.058 50.032 24.498-7.2451-24.211-7.6386-50.433-1.1233-74.851 4.0619-15.223 10.842-29.857 20.891-41.992s23.478-21.682 38.645-25.949c17.208-4.8418 36.303-2.573 51.898 6.1664s27.498 23.842 32.351 41.047c15.135-18.465 39.038-29.404 62.906-28.789 16.049 0.41397 31.876 5.8542 45.022 15.069s23.601 22.135 30.241 36.751c8.122 17.878 10.513 38.307 6.7399 57.578 16.212-6.5409 34.188-8.6463 51.473-6.0288 17.285 2.6176 33.831 9.9512 47.379 20.999 10.513 8.5726 19.254 19.406 24.896 31.741 5.6422 12.336 8.1245 26.181 6.5565 39.655-2.1965 18.875-12.566 36.657-27.913 47.864s-35.441 15.671-54.089 12.017" stroke="#fff" stroke-width="2.096"/>
</svg>
