<?xml version="1.0" encoding="utf-8"?>
<!-- Generator: Adobe Illustrator 22.0.1, SVG Export Plug-In . SVG Version: 6.00 Build 0)  -->
<svg version="1.1" id="Layer_1" xmlns="http://www.w3.org/2000/svg" xmlns:xlink="http://www.w3.org/1999/xlink" x="0px" y="0px"
	 viewBox="0 0 74 74" style="enable-background:new 0 0 74 74;" xml:space="preserve">
<g>
	<path d="M41.5,47.4C41.5,47.4,41.5,47.4,41.5,47.4c-0.3,0-0.6,0.1-0.8,0.4c-0.6,0.7-3.5,4.2-3.5,6.3c0,2.3,1.9,4.2,4.2,4.2
		c2.3,0,4.2-1.9,4.2-4.2c0-2-2.9-5.6-3.4-6.3C42.1,47.5,41.8,47.4,41.5,47.4z M41.5,56.2c-1.2,0-2.2-1-2.2-2.2c0-0.7,1-2.5,2.2-4
		c1.2,1.6,2.2,3.3,2.2,4C43.7,55.2,42.7,56.2,41.5,56.2z"/>
	<path d="M51.7,55.5C51.7,55.5,51.7,55.5,51.7,55.5c-0.3,0-0.6,0.1-0.8,0.4c-0.6,0.7-3.5,4.2-3.5,6.3c0,2.3,1.9,4.2,4.2,4.2
		c2.3,0,4.2-1.9,4.2-4.2c0-2-2.9-5.6-3.4-6.3C52.2,55.7,52,55.5,51.7,55.5z M51.7,64.4c-1.2,0-2.2-1-2.2-2.2c0-0.7,1-2.5,2.2-4
		c1.2,1.6,2.2,3.3,2.2,4C53.9,63.4,52.9,64.4,51.7,64.4z"/>
	<path d="M21.4,53.1c-0.3,0-0.6,0-0.8,0.2c-0.7,0.6-4.1,3.6-4.4,5.6c-0.2,1.1,0.1,2.2,0.8,3.1c0.7,0.9,1.6,1.5,2.8,1.7
		c0.2,0,0.4,0,0.6,0c2,0,3.8-1.5,4.2-3.5c0.3-2-2-6-2.4-6.7C21.9,53.3,21.7,53.2,21.4,53.1z M22.5,60c-0.2,1.2-1.3,2-2.5,1.8
		c-0.6-0.1-1.1-0.4-1.5-0.9c-0.3-0.5-0.5-1.1-0.4-1.6c0.1-0.7,1.4-2.3,2.8-3.6C21.9,57.4,22.6,59.3,22.5,60z"/>
	<path d="M34.3,59.2c-0.3,0-0.6,0.1-0.8,0.4c-0.6,0.7-3.5,4.2-3.5,6.3c0,2.3,1.9,4.2,4.2,4.2c2.3,0,4.2-1.9,4.2-4.2
		c0-2-2.9-5.6-3.4-6.3C34.9,59.3,34.6,59.2,34.3,59.2z M34.3,68c-1.2,0-2.2-1-2.2-2.2c0-0.7,1.1-2.5,2.2-4c1.2,1.6,2.2,3.3,2.2,4
		C36.5,67,35.5,68,34.3,68z"/>
	<path d="M53.7,42.6C53.7,42.6,53.7,42.6,53.7,42.6c-0.3,0-0.6,0.1-0.8,0.4c-0.6,0.7-3.5,4.2-3.5,6.3c0,2.3,1.9,4.2,4.2,4.2
		c2.3,0,4.2-1.9,4.2-4.2c0-2-2.9-5.6-3.4-6.3C54.2,42.7,54,42.6,53.7,42.6z M53.7,51.4c-1.2,0-2.2-1-2.2-2.2c0-0.7,1-2.5,2.2-4
		c1.2,1.6,2.2,3.3,2.2,4C55.9,50.4,54.9,51.4,53.7,51.4z"/>
	<path d="M60.9,14.7c-1-2.7-3-4.9-5.7-6c-2.6-1.1-5.4-1.1-8-0.1c-2-3-5.3-4.6-9-4.5c-3.6,0.1-6.7,1.9-8.5,4.9
		C27,7.1,23.6,6.8,20.4,8c-3.3,1.2-5.6,3.9-6.5,7.2c0,0,0,0,0,0c-2.3,0-4.6,0.9-6.5,2.6c-2.2,2-3.4,4.7-3.4,7.6
		C4,31,8.6,35.6,14.2,35.6c2.2,0,4.3-0.7,6-2c1.4,3.2,4.3,5.5,7.8,6.1c3.6,0.6,7.2-0.6,9.6-3.3c2,2.2,4.8,3.5,7.7,3.5
		c0.4,0,0.8,0,1.2-0.1c3.5-0.4,6.4-2.4,8-5.4c3,1.6,6.7,1.6,9.8,0c3.5-1.9,5.6-5.3,5.6-9.3C70,19.8,66.1,15.4,60.9,14.7z M63.5,32.6
		c-2.8,1.5-6.1,1.3-8.7-0.5c-0.2-0.2-0.6-0.2-0.9-0.1c-0.3,0.1-0.5,0.3-0.6,0.6c-1.2,2.9-3.8,4.9-6.9,5.2c-3.2,0.4-6.1-1-7.9-3.6
		c-0.2-0.3-0.5-0.4-0.8-0.4c-0.3,0-0.6,0.2-0.8,0.4c-1.9,2.7-5.1,4.1-8.4,3.5c-3.3-0.6-5.9-2.9-6.7-6.1c-0.1-0.3-0.4-0.6-0.7-0.7
		c-0.3-0.1-0.7,0-1,0.3c-1.6,1.6-3.6,2.4-5.8,2.4c-4.5,0-8.2-3.7-8.2-8.2c0-2.4,1-4.5,2.8-6.1c1.7-1.5,3.9-2.3,5.9-2
		c0.5,0.1,1-0.3,1.1-0.8c0.5-3,2.5-5.5,5.4-6.6c2.8-1.1,5.9-0.6,8.3,1.3c0.2,0.2,0.5,0.3,0.8,0.2c0.3-0.1,0.5-0.3,0.7-0.5
		c1.4-2.9,4.2-4.7,7.4-4.8c3.2-0.1,6.1,1.5,7.6,4.3c0.3,0.5,0.8,0.6,1.3,0.4c2.2-1.1,4.8-1.2,7.1-0.2c2.3,1,4.1,3,4.8,5.4
		c0.1,0.4,0.5,0.7,0.9,0.7c4.4,0.3,7.9,4,7.9,8.5C68,28.3,66.3,31.1,63.5,32.6z"/>
	<path d="M49.9,30.2c-0.5-0.2-1.1,0-1.3,0.6c-0.6,1.6-2.1,2.2-3.2,2.2c-0.6,0-1,0.4-1,1s0.4,1,1,1c1.8,0,4.1-0.9,5.1-3.4
		C50.7,31,50.4,30.4,49.9,30.2z"/>
	<path d="M59.9,19.6c-0.6,0-1,0.4-1.1,0.9c0,0.6,0.4,1,0.9,1.1c1.8,0.1,3.3,1.7,3.3,3.5c0,0.6,0.4,1,1,1s1-0.4,1-1
		C65,22.2,62.8,19.8,59.9,19.6z"/>
	<path d="M51,12.8c-0.6,0-1,0.4-1,1s0.4,1,1,1c1.3,0,2.9,0.8,3.4,2.5c0.1,0.4,0.5,0.7,1,0.7c0.1,0,0.2,0,0.3,0
		c0.5-0.2,0.8-0.7,0.7-1.2C55.5,14,53,12.8,51,12.8z"/>
	<path d="M38.6,9c-0.8,0-3.6,0.2-5,3.1c-0.2,0.5,0,1.1,0.5,1.3c0.1,0.1,0.3,0.1,0.4,0.1c0.4,0,0.7-0.2,0.9-0.6c0.9-1.8,2.6-2,3.2-2
		c0.6,0,1-0.4,1-1S39.2,9,38.6,9z"/>
	<path d="M25.2,13.3c0-0.6-0.4-1-1-1c-2.3,0-5,1.6-5.5,4.6C18.6,17.4,19,18,19.5,18c0.1,0,0.1,0,0.2,0c0.5,0,0.9-0.3,1-0.8
		c0.3-1.9,2-3,3.5-3C24.7,14.3,25.2,13.8,25.2,13.3z"/>
	<path d="M13.9,20.2c-2.3,0-4.9,2.1-4.9,5.2c0,0.6,0.4,1,1,1s1-0.4,1-1c0-2.1,1.9-3.2,2.9-3.2c0.6,0,1-0.4,1-1S14.5,20.2,13.9,20.2z
		"/>
	<path d="M29.9,32.9c-0.5,0-2.8-0.1-3.4-2.6c-0.1-0.5-0.7-0.8-1.2-0.7c-0.5,0.1-0.8,0.7-0.7,1.2c0.8,3,3.4,4,5.4,4c0.6,0,1-0.4,1-1
		S30.4,32.9,29.9,32.9z"/>
	<path d="M35.3,49.6c0-2-2.9-5.6-3.4-6.3c-0.2-0.2-0.5-0.4-0.8-0.4c0,0,0,0,0,0c-0.3,0-0.6,0.1-0.8,0.4c-0.6,0.7-3.5,4.2-3.5,6.3
		c0,2.3,1.9,4.2,4.2,4.2C33.4,53.8,35.3,51.9,35.3,49.6z M28.9,49.6c0-0.7,1-2.5,2.2-4c1.2,1.6,2.2,3.3,2.2,4c0,1.2-1,2.2-2.2,2.2
		C29.9,51.8,28.9,50.8,28.9,49.6z"/>
</g>
</svg>
