<?xml version="1.0" encoding="UTF-8"?>
<svg viewBox="0 0 48 48" xmlns="http://www.w3.org/2000/svg">
 <g stroke="#000" stroke-miterlimit="2">
  <path d="m24 4.7387c-3.4514 0-6.2467 2.357-7.1721 5.5115-1.0536-0.55317-2.1955-0.95025-3.4673-0.95025-4.1949 0-7.5996 3.4057-7.5995 7.602 0 0.88021 0.247 1.6842 0.52247 2.4707-2.0876 1.1718-3.5623 3.3282-3.5623 5.8916 0 3.7767 3.0641 6.8418 6.8396 6.8418h28.878c3.7754 0 6.8396-3.0651 6.8396-6.8418 0-2.5634-1.4748-4.7197-3.5623-5.8916 0.27549-0.78649 0.52248-1.5905 0.52248-2.4707 0-4.1963-3.4046-7.602-7.5996-7.602-1.2718 0-2.4136 0.39709-3.4673 0.95025-0.92539-3.1544-3.7206-5.5115-7.1721-5.5115z" fill="#bfbfbf"/>
  <g fill="#fff" stroke-width="1.075">
   <path d="m8.1395 40.66c-1.5801-0.90585-2.1221-2.9144-1.2098-4.4834 2.0244-3.1666 4.721-2.3508 6.1001-5.6889 1.9171 2.0276 1.2059 12.54-4.8903 10.172z"/>
   <path d="m18.494 36.881c-1.5801-0.90583-2.1221-2.9144-1.2098-4.4834 2.0244-3.1666 4.721-2.3508 6.1001-5.6889 1.9171 2.0276 1.2059 12.54-4.8903 10.172z"/>
  </g>
 </g>
</svg>
