<?xml version="1.0" encoding="UTF-8"?>
<svg enable-background="new 0 0 595.28 841.89" viewBox="0 0 595.28 841.89" xmlns="http://www.w3.org/2000/svg">
 <defs>
  <linearGradient id="c" x2="0" y1="1111.5" y2="828.54" gradientTransform="matrix(.9451 .3268 .3268 -.9451 -196.23 1147.5)" gradientUnits="userSpaceOnUse">
   <stop stop-color="#e6e6e6" offset="0"/>
   <stop stop-color="#f2f2f2" offset="1"/>
  </linearGradient>
  <linearGradient id="b" x2="0" y1="1113.7" y2="828.23" gradientTransform="matrix(.9451 .3268 .3268 -.9451 -196.23 1147.5)" gradientUnits="userSpaceOnUse">
   <stop stop-color="#e6e6e6" offset="0"/>
   <stop stop-color="#f2f2f2" offset="1"/>
  </linearGradient>
  <linearGradient id="a" x2="0" y1="837.45" y2="648.67" gradientTransform="matrix(.9451 .3268 .3268 -.9451 -196.23 1147.5)" gradientUnits="userSpaceOnUse">
   <stop stop-color="#fff" offset="0"/>
   <stop stop-color="#fff" offset=".0896"/>
   <stop stop-color="#fff" offset="1"/>
  </linearGradient>
 </defs>
 <path d="m561.79 495.25c1.532-3.789 2.971-7.622 4.318-11.522-1.347 3.9-2.786 7.733-4.318 11.522z" fill="#f2f2f2"/>
 <path d="m561.33,496.313c.145-.358.315-.717.461-1.067-.145.351-.316.709-.461,1.067z" fill="url(#c)"/>
 <path d="m267.43 621.48c78.256 27.057 155.5 9.048 172.54-40.219 12.637-36.54-11.433-80.01-56.645-111.08 7.84-13.341 14.493-27.637 19.746-42.821 17.113-49.505 16.857-100.79 2.519-147.27 97.375 42.562 153.51 144.46 140.11 247.62 5.91-9.927 11.126-20.416 15.637-31.393-47.38 115.65-177.43 175.46-297 134.12-28.769-9.943-54.353-24.914-76.216-43.521 4.609-0.188 9.205-0.504 13.771-0.956 18.014 14.407 40.27 26.783 65.543 35.524z" fill="#f2f2f2"/>
 <path d="m561.79 495.25c-0.146 0.351-0.316 0.709-0.461 1.067-4.511 10.977-9.727 21.466-15.637 31.393 13.404-103.16-42.732-205.06-140.11-247.62-13.209-42.813-38.384-81.491-73.016-110.98 28.679-1.131 58.053 2.894 86.821 12.837 123.85 42.822 189.54 177.93 146.72 301.78-1.347 3.901-2.786 7.734-4.318 11.523z" fill="#f2f2f2"/>
 <path d="m561.79 495.25c-0.146 0.351-0.316 0.709-0.461 1.067-4.511 10.977-9.727 21.466-15.637 31.393 13.404-103.16-42.732-205.06-140.11-247.62-13.209-42.813-38.384-81.491-73.016-110.98 28.679-1.131 58.053 2.894 86.821 12.837 123.85 42.822 189.54 177.93 146.72 301.78-1.347 3.901-2.786 7.734-4.318 11.523z" fill="url(#b)"/>
 <path d="m439.97 581.26c-17.036 49.267-94.281 67.275-172.54 40.219-25.273-8.74-47.529-21.116-65.543-35.524 74.381-7.306 142.61-49.633 181.44-115.77 45.212 31.068 69.282 74.538 56.645 111.08z" fill="#f2f2f2"/>
 <path d="m439.97 581.26c-17.036 49.267-94.281 67.275-172.54 40.219-25.273-8.74-47.529-21.116-65.543-35.524 74.381-7.306 142.61-49.633 181.44-115.77 45.212 31.068 69.282 74.538 56.645 111.08z" fill="url(#a)"/>
 <path d="m561.791,495.246c-.146.351-.316.709-.461,1.067-1.353,3.294-2.791,6.521-4.268,9.722-.389.845-.798,1.682-1.199,2.526-1.212,2.544-2.467,5.062-3.76,7.545-.342.657-.67,1.314-1.024,1.972-1.732,3.261-3.513,6.479-5.386,9.628 .004-.017.009-.051.009-.06-56.312,94.734-173.131,140.219-281.372,102.783-28.769-9.943-54.353-24.914-76.216-43.521 4.609-.188 9.205-.504 13.771-.956 74.381-7.306 142.609-49.633 181.436-115.773 7.84-13.341 14.493-27.637 19.746-42.821 17.113-49.505 16.857-100.79 2.519-147.269-13.209-42.813-38.384-81.491-73.016-110.985 28.679-1.131 58.053,2.894 86.821,12.837 123.848,42.822 189.536,177.928 146.718,301.784-1.347,3.899-2.786,7.732-4.318,11.521z" fill="#f9ea32" opacity=".25"/>
 <path d="m214.86 453.76-18.777-28.636-33.032 9.013 21.432-26.711-18.778-28.64 32.021 12.124 21.436-26.72-1.643 34.223 32.02 12.124-33.032 9.013z" fill="#f9ea32"/>
 <path d="m224.37 290.4-14.984-8.565-15.551 7.485 3.524-16.9-11.928-12.487 17.156-1.865 8.186-15.201 7.08 15.747 16.981 3.082-12.773 11.599z" fill="#f9ea32"/>
 <path d="m67.04 307.33-20.48 6.662v21.526l-12.663-17.416-20.476 6.653 12.654-17.425-12.654-17.416 20.476 6.649 12.663-17.425v21.539z" fill="#f9ea32"/>
</svg>
