<?xml version="1.0" encoding="UTF-8"?>
<svg enable-background="new 0 0 595.28 841.89" viewBox="0 0 595.28 841.89" xmlns="http://www.w3.org/2000/svg">
 <defs>
  <linearGradient id="e" x2="0" y1="1145.8" y2="936.99" gradientTransform="matrix(.9451 .3268 .3268 -.9451 -196.23 1147.5)" gradientUnits="userSpaceOnUse">
   <stop stop-color="#e6e6e6" offset="0"/>
   <stop stop-color="#f2f2f2" offset="1"/>
  </linearGradient>
  <linearGradient id="d" x2="0" y1="1146.8" y2="936.84" gradientTransform="matrix(.9451 .3268 .3268 -.9451 -196.23 1147.5)" gradientUnits="userSpaceOnUse">
   <stop stop-color="#e6e6e6" offset="0"/>
   <stop stop-color="#f2f2f2" offset="1"/>
  </linearGradient>
  <linearGradient id="c" x2="0" y1="943.62" y2="804.78" gradientTransform="matrix(.9451 .3268 .3268 -.9451 -196.23 1147.5)" gradientUnits="userSpaceOnUse">
   <stop stop-color="#fff" offset="0"/>
   <stop stop-color="#fff" offset=".0896"/>
   <stop stop-color="#fff" offset="1"/>
  </linearGradient>
  <linearGradient id="b" x2="0" y1="600.64" y2="450.44" gradientUnits="userSpaceOnUse">
   <stop stop-color="#adc1ca" offset="0"/>
   <stop stop-color="#cdcccc" offset="1"/>
  </linearGradient>
  <linearGradient id="a" x2="0" y1="480.84" y2="360.62" gradientUnits="userSpaceOnUse">
   <stop stop-color="#f2f2f2" stop-opacity=".81" offset="0"/>
   <stop stop-color="#f2f2f2" stop-opacity=".65" offset="1"/>
  </linearGradient>
  <linearGradient id="i" x2="0" y1="522.41" y2="433.17" gradientUnits="userSpaceOnUse">
   <stop stop-color="#f2f2f2" stop-opacity=".81" offset="0"/>
   <stop stop-color="#f2f2f2" stop-opacity=".65" offset="1"/>
  </linearGradient>
  <linearGradient id="h" x2="0" y1="519.71" y2="448.51" gradientUnits="userSpaceOnUse">
   <stop stop-color="#f2f2f2" stop-opacity=".81" offset="0"/>
   <stop stop-color="#f2f2f2" stop-opacity=".65" offset="1"/>
  </linearGradient>
  <linearGradient id="g" x2="0" y1="1061.6" y2="996.78" gradientTransform="matrix(.9451 .3268 .3268 -.9451 -196.23 1147.5)" gradientUnits="userSpaceOnUse">
   <stop stop-color="#e6e6e6" offset="0"/>
   <stop stop-color="#f2f2f2" offset="1"/>
  </linearGradient>
  <radialGradient id="f" cx="138.46" cy="638.79" r="77.322" gradientTransform="matrix(1 0 0 1.4587 0 -293.01)" gradientUnits="userSpaceOnUse">
   <stop stop-color="#fff" offset="0"/>
   <stop stop-color="#f6fbfc" offset=".0849"/>
   <stop stop-color="#deeff5" offset=".2235"/>
   <stop stop-color="#b6dce9" offset=".3985"/>
   <stop stop-color="#7fc2d8" offset=".6031"/>
   <stop stop-color="#39a1c2" offset=".8298"/>
   <stop stop-color="#0086b1" offset="1"/>
  </radialGradient>
 </defs>
 <path d="m513.67 373.74c1.127-2.784 2.186-5.606 3.177-8.476-0.991 2.87-2.05 5.692-3.177 8.476z" fill="#f2f2f2"/>
 <path d="m513.329,374.524c.107-.264.232-.531.339-.788-.106.257-.231.525-.339.788z" fill="url(#e)"/>
 <path d="m297.15 466.58c57.561 19.901 114.38 6.655 126.91-29.582 9.295-26.876-8.409-58.851-41.664-81.702 5.767-9.813 10.66-20.328 14.524-31.497 12.588-36.413 12.399-74.131 1.852-108.32 71.623 31.309 112.91 106.26 103.06 182.13 4.348-7.301 8.184-15.014 11.501-23.087-34.85 85.058-130.51 129.06-218.45 98.646-21.16-7.317-39.979-18.325-56.06-32.015 3.39-0.135 6.771-0.37 10.13-0.7 13.25 10.598 29.62 19.7 48.209 26.126z" fill="#f2f2f2"/>
 <path d="m513.668,373.736c-.106.257-.231.524-.339.788-3.317,8.073-7.153,15.786-11.501,23.087 9.859-75.876-31.432-150.823-103.055-182.132-9.715-31.491-28.231-59.937-53.705-81.63 21.094-.832 42.7,2.125 63.86,9.439 91.095,31.497 139.41,130.872 107.916,221.973-.99,2.869-2.049,5.691-3.176,8.475z" fill="#f2f2f2"/>
 <path d="m513.668,373.736c-.106.257-.231.524-.339.788-3.317,8.073-7.153,15.786-11.501,23.087 9.859-75.876-31.432-150.823-103.055-182.132-9.715-31.491-28.231-59.937-53.705-81.63 21.094-.832 42.7,2.125 63.86,9.439 91.095,31.497 139.41,130.872 107.916,221.973-.99,2.869-2.049,5.691-3.176,8.475z" fill="url(#d)"/>
 <path d="m424.06 437c-12.53 36.237-69.347 49.483-126.91 29.582-18.589-6.426-34.959-15.528-48.209-26.126 54.71-5.377 104.89-36.507 133.45-85.158 33.254 22.851 50.958 54.826 41.664 81.702z" fill="#f2f2f2"/>
 <path d="m424.06 437c-12.53 36.237-69.347 49.483-126.91 29.582-18.589-6.426-34.959-15.528-48.209-26.126 54.71-5.377 104.89-36.507 133.45-85.158 33.254 22.851 50.958 54.826 41.664 81.702z" fill="url(#c)"/>
 <path d="m513.668,373.736c-.106.257-.231.524-.339.788-.995,2.42-2.053,4.793-3.139,7.147-.286.621-.587,1.239-.882,1.858-.892,1.874-1.814,3.723-2.766,5.55-.251.483-.493.967-.754,1.45-1.274,2.397-2.583,4.768-3.961,7.081 .003-.009.006-.037.006-.044-41.419,69.681-127.344,103.136-206.958,75.604-21.16-7.317-39.979-18.325-56.06-32.015 3.39-.135 6.771-.37 10.13-.7 54.71-5.377 104.894-36.507 133.452-85.158 5.767-9.813 10.66-20.328 14.524-31.497 12.588-36.413 12.399-74.131 1.852-108.321-9.715-31.491-28.231-59.937-53.705-81.63 21.094-.832 42.7,2.125 63.86,9.439 91.095,31.497 139.41,130.872 107.916,221.973-.99,2.869-2.049,5.691-3.176,8.475z" fill="#f9ea32"/>
 <path d="m497.39 442.2c-29.281 0-54.833 15.893-68.541 39.514-15.187-31.148-51.257-53.068-93.348-53.068-27.062 0-51.612 9.078-69.75 23.813-11.68-55.699-61.06-97.523-120.23-97.523-67.847 0-122.86 55.005-122.86 122.86s55.008 122.85 122.86 122.85h351.87c43.751 0 79.216-35.471 79.216-79.22-1e-3 -43.755-35.465-79.223-79.216-79.223z" fill="#cdcccc"/>
 <path d="m497.39 569.08c-29.485 0-55.185-16.122-68.829-40.01-15.354 30.835-51.235 52.46-93.06 52.46-51.292 0-93.634-32.539-100.14-74.684-22.428 24.041-54.365 39.093-89.84 39.093-58.441 0-107.32-40.823-119.76-95.501-2.004 8.802-3.098 17.942-3.098 27.356 0 67.85 55.008 122.85 122.86 122.85h351.87c43.751 0 79.216-35.471 79.216-79.22 0-5.408-0.536-10.679-1.575-15.783-7.318 36.191-39.299 63.44-77.641 63.44z" fill="url(#b)"/>
 <path d="m497.39 428.64c-26.682 0-50.746 11.342-67.684 29.419-20.708-25.935-55.206-42.96-94.205-42.96-22.78 0-44.009 5.819-61.867 15.823-19.161-52.192-69.357-89.537-128.11-89.537-75.212 0-136.4 61.183-136.4 136.4 0 75.211 61.186 136.4 136.4 136.4h351.87c51.156 0 92.768-41.617 92.768-92.771s-41.612-92.776-92.768-92.776zm0 172h-351.87c-67.847 0-122.86-54.999-122.86-122.85s55.008-122.86 122.86-122.86c54.079 0 99.96 34.962 116.37 83.498 1.551 4.561 2.854 9.234 3.858 14.025 1.714 8.174 2.625 16.643 2.625 25.335 0 3.242-0.164 6.46-0.412 9.646-1.704 8.884 12.202 11.433 13.485 1.274 0.289-3.609 0.474-7.238 0.474-10.92 0-11.624-1.466-22.899-4.212-33.67 16.379-9.749 36.291-15.479 57.79-15.479 36.02 0 67.617 16.054 85.504 40.211-6.523 9.449-11.332 20.162-14.001 31.686-1.381 8.093 10.924 11.194 13.643 1.293 1.827-7.141 4.59-13.905 8.202-20.121 2.518-4.356 5.446-8.438 8.724-12.21 14.524-16.719 35.929-27.304 59.817-27.304 43.751 0 79.216 35.468 79.216 79.223s-35.466 79.22-79.217 79.22z" fill="#fff"/>
 <path d="m235.34 420.73c0 33.195-39.796 60.109-88.888 60.109s-88.881-26.914-88.881-60.109 39.795-60.106 88.881-60.106 88.888 26.907 88.888 60.106z" fill="url(#a)"/>
 <path d="m412.21 477.79c0 24.638-33.901 44.614-75.72 44.614s-75.713-19.977-75.713-44.614 33.895-44.625 75.713-44.625 75.72 19.983 75.72 44.625z" fill="url(#i)"/>
 <path d="m555.01 484.11c0 19.656-25.571 35.6-57.105 35.6-31.535 0-57.096-15.943-57.096-35.6 0-19.669 25.561-35.603 57.096-35.603s57.105 15.934 57.105 35.603z" fill="url(#h)"/>
 <path d="m258.49 343.22-13.812-21.063-24.296 6.633 15.765-19.647-13.812-21.07 23.552 8.921 15.767-19.653-1.209 25.172 23.553 8.915-24.296 6.63z" fill="#f9ea32"/>
 <path d="m265.48 223.06-11.021-6.296-11.438 5.505 2.593-12.43-8.774-9.185 12.619-1.375 6.02-11.178 5.208 11.583 12.491 2.263-9.396 8.535z" fill="#f9ea32"/>
 <path d="m149.76 235.52-15.065 4.903v15.833l-9.313-12.814-15.061 4.898 9.307-12.82-9.307-12.807 15.061 4.891 9.313-12.821v15.846z" fill="#f9ea32"/>
 <path d="m240.97,235.352c.351-.866.68-1.744.988-2.636-.309.891-.638,1.769-.988,2.636z" fill="#f2f2f2"/>
 <path d="m240.864,235.597c.033-.082.072-.161.105-.245-.032.084-.072.163-.105.245z" fill="url(#g)"/>
 <path d="m190.991,645.085h.022l-.207-.365c-.608-1.164-1.233-2.308-1.909-3.427-12.58-22.753-41.863-64.739-50.441-94.583-8.572,29.844-37.861,71.83-50.435,94.583-.681,1.119-1.312,2.263-1.915,3.427-.07.12-.139.243-.207.365h.014c-4.105,8.043-6.44,17.147-6.44,26.8 0,32.571 26.406,58.983 58.982,58.983 32.571,0 58.98-26.412 58.98-58.983 .003-9.653-2.328-18.757-6.444-26.8z" fill="url(#f)" stroke="#fff" stroke-miterlimit="10" stroke-width="10"/>
</svg>
